<svg width="38" height="38" viewBox="0 0 38 38" fill="none" xmlns="http://www.w3.org/2000/svg">
<path fill-rule="evenodd" clip-rule="evenodd" d="M22.8468 2.46766V2.46768L23.0594 4.5942C23.2228 6.22774 23.3045 7.04451 23.8573 7.27349C24.4101 7.50248 25.0454 6.98269 26.316 5.94311L27.97 4.58982C28.6357 4.04511 28.9686 3.77276 29.3535 3.79195C29.7383 3.81115 30.0424 4.11527 30.6507 4.72353L33.2764 7.34928C33.8847 7.95754 34.1888 8.26167 34.208 8.6465C34.2272 9.03134 33.9548 9.36422 33.4101 10.03L32.0568 11.684C31.0172 12.9546 30.4974 13.5899 30.7264 14.1427C30.9554 14.6956 31.7722 14.7772 33.4057 14.9406L35.5323 15.1533C36.3883 15.2388 36.8162 15.2816 37.0748 15.5673C37.3333 15.853 37.3333 16.2831 37.3333 17.1433V20.8567C37.3333 21.7169 37.3333 22.147 37.0748 22.4327C36.8162 22.7184 36.3883 22.7612 35.5323 22.8468L33.4064 23.0594C31.7729 23.2227 30.9561 23.3044 30.7271 23.8572C30.4981 24.41 31.0179 25.0453 32.0575 26.3159L33.4102 27.9693C33.9549 28.635 34.2273 28.9679 34.2081 29.3527C34.1889 29.7376 33.8848 30.0417 33.2765 30.6499L30.6508 33.2757C30.0425 33.884 29.7384 34.1881 29.3535 34.2073C28.9687 34.2265 28.6358 33.9541 27.9701 33.4094L26.316 32.0561C25.0455 31.0165 24.4102 30.4968 23.8573 30.7257C23.3045 30.9547 23.2229 31.7715 23.0595 33.405L22.8468 35.5324C22.7612 36.3883 22.7184 36.8163 22.4327 37.0748C22.147 37.3334 21.7169 37.3334 20.8567 37.3334H17.1433C16.2831 37.3334 15.853 37.3334 15.5673 37.0748C15.2816 36.8163 15.2388 36.3883 15.1532 35.5324L14.9406 33.4057C14.7772 31.7722 14.6955 30.9554 14.1427 30.7265C13.5899 30.4975 12.9546 31.0173 11.684 32.0568L10.0299 33.4102C9.36412 33.9549 9.03124 34.2273 8.6464 34.2081C8.26157 34.1889 7.95744 33.8848 7.34919 33.2765L4.72343 30.6508C4.11518 30.0425 3.81105 29.7384 3.79186 29.3536C3.77266 28.9687 4.04502 28.6358 4.58973 27.9701L5.94308 26.316C6.98266 25.0454 7.50245 24.4101 7.27346 23.8573C7.04448 23.3045 6.22771 23.2228 4.59418 23.0594L2.46767 22.8468H2.46765C1.61173 22.7612 1.18376 22.7184 0.925219 22.4327C0.666672 22.147 0.666672 21.7169 0.666672 20.8567V17.1433C0.666672 16.2831 0.666672 15.853 0.925219 15.5673C1.18377 15.2816 1.61173 15.2388 2.46766 15.1533L4.59486 14.9405C6.2284 14.7772 7.04517 14.6955 7.27415 14.1427C7.50313 13.5899 6.98334 12.9546 5.94377 11.684L4.58981 10.0291C4.0451 9.36339 3.77274 9.03051 3.79194 8.64567C3.81113 8.26084 4.11526 7.95671 4.72351 7.34846L7.34927 4.7227C7.95752 4.11444 8.26165 3.81032 8.64648 3.79112C9.03132 3.77193 9.3642 4.04428 10.03 4.589L11.6841 5.94239C12.9547 6.98197 13.59 7.50175 14.1428 7.27277C14.6956 7.04379 14.7773 6.22702 14.9407 4.59348L15.1532 2.46768C15.2388 1.61175 15.2816 1.18378 15.5673 0.925234C15.853 0.666687 16.2831 0.666687 17.1433 0.666687H20.8567C21.7169 0.666687 22.147 0.666687 22.4327 0.925234C22.7184 1.18378 22.7612 1.61174 22.8468 2.46766ZM19 26.3334C23.0501 26.3334 26.3333 23.0501 26.3333 19C26.3333 14.9499 23.0501 11.6667 19 11.6667C14.9499 11.6667 11.6667 14.9499 11.6667 19C11.6667 23.0501 14.9499 26.3334 19 26.3334Z" fill="#222222"/>
</svg>
