<svg width="34" height="34" viewBox="0 0 34 34" fill="none" xmlns="http://www.w3.org/2000/svg">
<path fill-rule="evenodd" clip-rule="evenodd" d="M2.25736 2.25736C0.5 4.01472 0.5 6.84315 0.5 12.5V21.5C0.5 27.1569 0.5 29.9853 2.25736 31.7426C4.01472 33.5 6.84315 33.5 12.5 33.5H21.5C27.1569 33.5 29.9853 33.5 31.7426 31.7426C33.5 29.9853 33.5 27.1569 33.5 21.5V12.5C33.5 6.84315 33.5 4.01472 31.7426 2.25736C29.9853 0.5 27.1569 0.5 21.5 0.5H12.5C6.84315 0.5 4.01472 0.5 2.25736 2.25736ZM16 7.83333V16L7.83333 16V18H16L16 26.1667H18V18H26.1667V16H18V7.83333H16Z" fill="#222222"/>
</svg>
