<svg width="26" height="30" viewBox="0 0 26 30" fill="none" xmlns="http://www.w3.org/2000/svg">
<path fill-rule="evenodd" clip-rule="evenodd" d="M0.669843 9.56465C0.166664 10.6587 0.166664 11.9033 0.166664 14.3925V22.1666C0.166664 25.6235 0.166664 27.352 1.24061 28.4259C2.30588 29.4912 4.01518 29.4998 7.41666 29.4999V20.3333C7.41666 18.7685 8.68519 17.5 10.25 17.5H15.75C17.3148 17.5 18.5833 18.7685 18.5833 20.3333V29.4999C21.9848 29.4998 23.6941 29.4912 24.7594 28.4259C25.8333 27.352 25.8333 25.6235 25.8333 22.1666V14.3925C25.8333 11.9033 25.8333 10.6587 25.3302 9.56465C24.827 8.47063 23.882 7.66065 21.992 6.04068L20.1587 4.46925C16.7426 1.54118 15.0346 0.0771484 13 0.0771484C10.9654 0.0771484 9.25737 1.54118 5.84129 4.46925L4.00796 6.04068C2.118 7.66065 1.17302 8.47063 0.669843 9.56465ZM16.5833 29.4999V20.3333C16.5833 19.8731 16.2102 19.5 15.75 19.5H10.25C9.78976 19.5 9.41666 19.8731 9.41666 20.3333V29.4999H16.5833Z" fill="white"/>
</svg>
